<?xml version="1.0" encoding="UTF-8" standalone="no"?>
<!-- Created with Inkscape (http://www.inkscape.org/) -->

<svg
   xmlns:dc="http://purl.org/dc/elements/1.1/"
   xmlns:cc="http://creativecommons.org/ns#"
   xmlns:rdf="http://www.w3.org/1999/02/22-rdf-syntax-ns#"
   xmlns:svg="http://www.w3.org/2000/svg"
   xmlns="http://www.w3.org/2000/svg"
   xmlns:sodipodi="http://sodipodi.sourceforge.net/DTD/sodipodi-0.dtd"
   xmlns:inkscape="http://www.inkscape.org/namespaces/inkscape"
   width="41.328743mm"
   height="7.834147mm"
   viewBox="0 0 41.328743 7.834147"
   version="1.1"
   id="svg824"
   inkscape:version="0.92.2 (5c3e80d, 2017-08-06)"
   sodipodi:docname="ecocash.svg">
  <defs
     id="defs818" />
  <sodipodi:namedview
     id="base"
     pagecolor="#ffffff"
     bordercolor="#666666"
     borderopacity="1.0"
     inkscape:pageopacity="0.0"
     inkscape:pageshadow="2"
     inkscape:zoom="1.4"
     inkscape:cx="49.23317"
     inkscape:cy="-62.116041"
     inkscape:document-units="mm"
     inkscape:current-layer="layer1"
     showgrid="false"
     fit-margin-top="0"
     fit-margin-left="0"
     fit-margin-right="0"
     fit-margin-bottom="0"
     inkscape:window-width="1920"
     inkscape:window-height="1017"
     inkscape:window-x="-8"
     inkscape:window-y="-8"
     inkscape:window-maximized="1" />
  <metadata
     id="metadata821">
    <rdf:RDF>
      <cc:Work
         rdf:about="">
        <dc:format>image/svg+xml</dc:format>
        <dc:type
           rdf:resource="http://purl.org/dc/dcmitype/StillImage" />
        <dc:title></dc:title>
      </cc:Work>
    </rdf:RDF>
  </metadata>
  <g
     inkscape:label="Layer 1"
     inkscape:groupmode="layer"
     id="layer1"
     transform="translate(-68.106585,-92.747421)">
    <path
       inkscape:connector-curvature="0"
       id="path1399"
       style="font-style:normal;font-weight:normal;font-size:medium;line-height:1.25;font-family:sans-serif;letter-spacing:-0.5291667px;word-spacing:0px;fill:#105baa;fill-opacity:1;stroke:none;stroke-width:0.26458332"
       d="m 73.098528,94.060003 h -3.457153 v 1.860351 h 3.183268 q 0.3514,0 0.521932,0.160197 0.1757,0.15503 0.1757,0.413412 0,0.258382 -0.170532,0.423746 -0.170532,0.160197 -0.5271,0.160197 h -3.183268 v 2.154908 h 3.576009 q 0.361735,0 0.542603,0.170532 0.186035,0.165364 0.186035,0.444417 0,0.268717 -0.186035,0.439247 -0.180868,0.16537 -0.542603,0.16537 h -4.170288 q -0.501261,0 -0.72347,-0.22221 -0.217041,-0.22221 -0.217041,-0.718304 v -5.694742 q 0,-0.33073 0.09819,-0.537435 0.09819,-0.211874 0.304891,-0.304891 0.211874,-0.09819 0.537435,-0.09819 h 4.051432 q 0.366903,0 0.542603,0.165364 0.180867,0.160197 0.180867,0.423747 0,0.268717 -0.180867,0.434082 -0.1757,0.160197 -0.542603,0.160197 z" />
    <path
       inkscape:connector-curvature="0"
       id="path1401"
       style="font-style:normal;font-weight:normal;font-size:medium;line-height:1.25;font-family:sans-serif;letter-spacing:-0.5291667px;word-spacing:0px;fill:#105baa;fill-opacity:1;stroke:none;stroke-width:0.26458332"
       d="m 79.607692,98.834905 q 0,0.26355 -0.160197,0.563273 -0.155029,0.299723 -0.480591,0.573609 -0.320394,0.268713 -0.81132,0.434083 -0.490926,0.16536 -1.105876,0.16536 -1.307413,0 -2.041219,-0.75964 -0.733805,-0.764812 -0.733805,-2.046387 0,-0.868164 0.335897,-1.53479 0.335897,-0.666626 0.971517,-1.028361 0.63562,-0.366903 1.519287,-0.366903 0.54777,0 1.002523,0.160197 0.45992,0.160197 0.775146,0.413412 0.320394,0.253214 0.485759,0.542602 0.170532,0.284221 0.170532,0.532267 0,0.253215 -0.191203,0.428915 -0.186035,0.1757 -0.454753,0.1757 -0.1757,0 -0.294555,-0.08785 -0.113688,-0.09302 -0.258382,-0.294556 -0.258383,-0.392741 -0.542603,-0.589111 -0.279053,-0.196371 -0.713135,-0.196371 -0.625285,0 -1.00769,0.490926 -0.382406,0.485759 -0.382406,1.333252 0,0.397909 0.09819,0.733806 0.09819,0.330729 0.28422,0.56844 0.186035,0.232544 0.449585,0.356568 0.26355,0.118856 0.578776,0.118856 0.423747,0 0.72347,-0.196371 0.304891,-0.19637 0.537435,-0.599446 0.129191,-0.237712 0.279052,-0.372071 0.149862,-0.134358 0.366903,-0.134358 0.258382,0 0.428915,0.19637 0.170532,0.19637 0.170532,0.418579 z" />
    <path
       inkscape:connector-curvature="0"
       id="path1403"
       style="font-style:normal;font-weight:normal;font-size:medium;line-height:1.25;font-family:sans-serif;letter-spacing:-0.5291667px;word-spacing:0px;fill:#105baa;fill-opacity:1;stroke:none;stroke-width:0.26458332"
       d="m 85.584588,97.713526 q 0,0.630453 -0.19637,1.16272 -0.196371,0.532267 -0.568441,0.914673 -0.37207,0.382401 -0.888835,0.589111 -0.516764,0.20154 -1.162719,0.20154 -0.640788,0 -1.152385,-0.20671 -0.511596,-0.2067 -0.888834,-0.589109 -0.372071,-0.387573 -0.568441,-0.909505 -0.191203,-0.527099 -0.191203,-1.16272 0,-0.640787 0.196371,-1.173054 0.19637,-0.532268 0.563273,-0.909506 0.366902,-0.377238 0.888834,-0.578776 0.521932,-0.206705 1.152385,-0.206705 0.640787,0 1.162719,0.206705 0.521932,0.206706 0.894003,0.589112 0.37207,0.382405 0.563273,0.909505 0.19637,0.527099 0.19637,1.162719 z m -1.415934,0 q 0,-0.862996 -0.382406,-1.343587 -0.377238,-0.480591 -1.018025,-0.480591 -0.413412,0 -0.728638,0.217041 -0.315226,0.211874 -0.485758,0.630453 -0.170533,0.418579 -0.170533,0.976684 0,0.552938 0.165365,0.96635 0.170532,0.413411 0.480591,0.63562 0.315226,0.217041 0.738973,0.217041 0.640787,0 1.018025,-0.480591 0.382406,-0.485758 0.382406,-1.33842 z" />
    <path
       inkscape:connector-curvature="0"
       id="path1405"
       style="font-style:normal;font-weight:normal;font-size:medium;line-height:1.25;font-family:sans-serif;letter-spacing:-0.5291667px;word-spacing:0px;fill:#ec2027;fill-opacity:1;stroke:none;stroke-width:0.26458332"
       d="m 92.713868,98.059759 q 0,0.361735 -0.180867,0.785481 -0.1757,0.418579 -0.558106,0.826823 -0.382405,0.403077 -0.976684,0.656287 -0.594279,0.25322 -1.384929,0.25322 -0.599446,0 -1.090372,-0.11369 -0.490926,-0.11369 -0.894003,-0.3514 -0.397908,-0.242879 -0.733805,-0.63562 -0.299723,-0.356567 -0.511597,-0.795817 -0.211873,-0.444417 -0.320393,-0.945678 -0.103353,-0.501262 -0.103353,-1.064535 0,-0.914673 0.26355,-1.638143 0.268717,-0.72347 0.764811,-1.235066 0.496093,-0.516765 1.162719,-0.785482 0.666626,-0.268718 1.421102,-0.268718 0.919841,0 1.638143,0.366903 0.718302,0.366903 1.100708,0.909505 0.382406,0.537435 0.382406,1.018026 0,0.26355 -0.186035,0.465088 -0.186036,0.201538 -0.449585,0.201538 -0.294556,0 -0.444418,-0.139526 -0.144694,-0.139527 -0.325561,-0.480591 -0.299724,-0.563273 -0.707967,-0.842326 -0.403077,-0.279053 -0.997355,-0.279053 -0.945679,0 -1.508952,0.718303 -0.558106,0.718302 -0.558106,2.041219 0,0.883667 0.248047,1.472778 0.248047,0.583944 0.7028,0.873332 0.454752,0.289388 1.064534,0.289388 0.661458,0 1.116211,-0.325562 0.45992,-0.330729 0.692464,-0.966349 0.09819,-0.299723 0.242879,-0.485759 0.144694,-0.191202 0.465088,-0.191202 0.273885,0 0.470256,0.191202 0.19637,0.191203 0.19637,0.475424 z" />
    <path
       inkscape:connector-curvature="0"
       id="path1407"
       style="font-style:normal;font-weight:normal;font-size:medium;line-height:1.25;font-family:sans-serif;letter-spacing:-0.5291667px;word-spacing:0px;fill:#ec2027;fill-opacity:1;stroke:none;stroke-width:0.26458332"
       d="m 97.031952,99.785751 q -0.511597,0.397909 -0.992188,0.599449 -0.475423,0.19637 -1.069702,0.19637 -0.542602,0 -0.956014,-0.21187 -0.408244,-0.21705 -0.630452,-0.583949 -0.222209,-0.366902 -0.222209,-0.795817 0,-0.578776 0.366903,-0.987019 0.366902,-0.408244 1.00769,-0.547771 0.134359,-0.03101 0.666626,-0.139526 0.532267,-0.108521 0.909505,-0.19637 0.382406,-0.09302 0.826823,-0.222209 -0.02584,-0.558106 -0.227376,-0.816488 -0.196371,-0.26355 -0.821655,-0.26355 -0.537435,0 -0.81132,0.149862 -0.268718,0.149862 -0.465088,0.449585 -0.191203,0.299723 -0.273885,0.397909 -0.07751,0.09302 -0.341065,0.09302 -0.237711,0 -0.413411,-0.149861 -0.170532,-0.15503 -0.170532,-0.392741 0,-0.372071 0.263549,-0.72347 0.26355,-0.3514 0.821656,-0.578776 0.558105,-0.227377 1.390096,-0.227377 0.930175,0 1.462443,0.222209 0.532267,0.217041 0.749308,0.692464 0.222209,0.475423 0.222209,1.260905 0,0.496094 -0.0052,0.842326 0,0.346232 -0.0052,0.769979 0,0.397908 0.129191,0.83199 0.134359,0.428915 0.134359,0.552935 0,0.21704 -0.206706,0.39791 -0.201538,0.1757 -0.45992,0.1757 -0.217041,0 -0.428914,-0.20154 -0.211874,-0.20671 -0.449585,-0.594276 z m -0.09302,-2.041219 q -0.310058,0.113688 -0.904337,0.24288 -0.589112,0.124023 -0.816488,0.186035 -0.227376,0.05684 -0.434082,0.232544 -0.206706,0.170532 -0.206706,0.48059 0,0.320394 0.24288,0.547771 0.242879,0.222208 0.63562,0.222208 0.418579,0 0.769978,-0.180867 0.356568,-0.186035 0.521932,-0.475423 0.191203,-0.320394 0.191203,-1.0542 z" />
    <path
       inkscape:connector-curvature="0"
       id="path1409"
       style="font-style:normal;font-weight:normal;font-size:medium;line-height:1.25;font-family:sans-serif;letter-spacing:-0.5291667px;word-spacing:0px;fill:#ec2027;fill-opacity:1;stroke:none;stroke-width:0.26458332"
       d="m 103.76332,98.73672 q 0,0.583943 -0.28422,1.002523 -0.28422,0.413407 -0.84232,0.630457 -0.55294,0.21187 -1.34876,0.21187 -0.75964,0 -1.302244,-0.23255 -0.542603,-0.23254 -0.800985,-0.578772 -0.258382,-0.351399 -0.258382,-0.702799 0,-0.232544 0.165364,-0.397909 0.165365,-0.165364 0.418579,-0.165364 0.222209,0 0.341065,0.10852 0.118856,0.108521 0.227373,0.304891 0.21704,0.377238 0.51677,0.563273 0.30489,0.186036 0.82682,0.186036 0.42375,0 0.69246,-0.186036 0.27389,-0.191202 0.27389,-0.434082 0,-0.37207 -0.28422,-0.542602 -0.27905,-0.170532 -0.92501,-0.325562 -0.72864,-0.180867 -1.188557,-0.377238 -0.454752,-0.201538 -0.728637,-0.527099 -0.273886,-0.325562 -0.273886,-0.800985 0,-0.423747 0.253215,-0.800985 0.253214,-0.377237 0.744141,-0.599446 0.496094,-0.227376 1.193724,-0.227376 0.54777,0 0.98185,0.113688 0.43925,0.113688 0.72864,0.304891 0.29456,0.191202 0.44442,0.423746 0.15503,0.232544 0.15503,0.454753 0,0.242879 -0.16537,0.397909 -0.16019,0.155029 -0.45992,0.155029 -0.21704,0 -0.37207,-0.124024 -0.14986,-0.124023 -0.34623,-0.37207 -0.1602,-0.206706 -0.37724,-0.330729 -0.21704,-0.124024 -0.58911,-0.124024 -0.3824,0 -0.63562,0.165365 -0.25321,0.160197 -0.25321,0.403076 0,0.222209 0.18603,0.366903 0.18604,0.139526 0.50126,0.232544 0.31523,0.09302 0.86817,0.227376 0.65629,0.160197 1.0697,0.382406 0.41858,0.222208 0.63045,0.527099 0.21704,0.299724 0.21704,0.687297 z" />
    <path
       inkscape:connector-curvature="0"
       id="path1411"
       style="font-style:normal;font-weight:normal;font-size:medium;line-height:1.25;font-family:sans-serif;letter-spacing:-0.5291667px;word-spacing:0px;fill:#ec2027;fill-opacity:1;stroke:none;stroke-width:0.26458332"
       d="m 105.81798,93.60525 v 2.092896 q 0.26872,-0.310059 0.52193,-0.490926 0.25838,-0.180868 0.56844,-0.268718 0.31006,-0.09302 0.66663,-0.09302 0.53743,0 0.95084,0.227376 0.41858,0.227376 0.65629,0.661458 0.14987,0.253215 0.20154,0.568441 0.0517,0.310059 0.0517,0.718302 v 2.702678 q 0,0.423753 -0.19637,0.640793 -0.19121,0.21704 -0.5116,0.21704 -0.69763,0 -0.69763,-0.857833 v -2.382284 q 0,-0.676961 -0.20154,-1.038696 -0.20154,-0.366903 -0.76481,-0.366903 -0.37724,0 -0.68213,0.217041 -0.29972,0.211874 -0.44958,0.583944 -0.11369,0.315226 -0.11369,1.121378 v 1.86552 q 0,0.418583 -0.1912,0.640793 -0.18604,0.21704 -0.52194,0.21704 -0.69763,0 -0.69763,-0.857833 v -6.11849 q 0,-0.428914 0.18087,-0.640787 0.18603,-0.217042 0.51676,-0.217042 0.3359,0 0.52194,0.217042 0.1912,0.217041 0.1912,0.640787 z" />
  </g>
</svg>
