<?xml version="1.0" standalone="no"?>
<!DOCTYPE svg PUBLIC "-//W3C//DTD SVG 20010904//EN"
 "http://www.w3.org/TR/2001/REC-SVG-20010904/DTD/svg10.dtd">
<svg version="1.0" xmlns="http://www.w3.org/2000/svg"
 width="3174.000000pt" height="1395.000000pt" viewBox="0 0 3174.000000 1395.000000"
 preserveAspectRatio="xMidYMid meet">

<g transform="translate(0.000000,1395.000000) scale(0.100000,-0.100000)"
fill="#000000" stroke="none">
<path d="M4255 13075 c-265 -27 -474 -69 -755 -151 -801 -235 -1527 -775
-2004 -1489 -336 -503 -526 -1015 -613 -1655 -15 -114 -17 -344 -20 -2705 -4
-2294 -2 -2599 12 -2755 28 -308 65 -504 151 -800 64 -223 111 -345 210 -550
518 -1069 1529 -1839 2694 -2050 319 -57 126 -54 2960 -58 2818 -3 2728 -5
3060 49 241 39 581 131 784 211 1201 475 2089 1567 2306 2833 56 330 53 181
57 2865 4 2514 2 2718 -33 2990 -105 826 -451 1552 -1019 2138 -605 625 -1327
988 -2225 1119 -105 16 -343 17 -2775 19 -2131 2 -2686 -1 -2790 -11z m6675
-6100 l0 -3955 -3950 0 -3950 0 0 3955 0 3955 3950 0 3950 0 0 -3955z"/>
<path d="M3510 6975 l0 -3465 3470 0 3470 0 0 3465 0 3465 -3470 0 -3470 0 0
-3465z"/>
<path d="M16355 11179 c-254 -36 -488 -184 -635 -402 -14 -20 -28 -37 -32 -37
-5 0 -8 17 -9 38 0 20 -6 107 -12 192 l-12 155 -288 3 -289 2 6 -82 c3 -46 8
-642 12 -1325 l6 -1243 324 0 323 0 3 843 3 842 27 80 c50 145 131 255 240
326 124 80 305 93 430 31 115 -56 194 -166 241 -331 21 -74 22 -93 27 -931 l5
-855 325 0 325 0 5 870 c4 683 8 879 19 910 48 146 152 270 278 332 76 38 78
38 197 38 114 0 125 -2 186 -31 121 -57 203 -170 252 -349 22 -79 22 -91 28
-925 l5 -845 325 0 325 0 3 795 c2 516 -1 841 -8 925 -38 450 -205 752 -495
896 -270 133 -626 113 -891 -52 -103 -64 -233 -184 -305 -280 l-51 -70 -33 65
c-157 312 -483 469 -860 415z"/>
<path d="M19712 11113 c3 -10 223 -562 488 -1228 563 -1411 509 -1272 509
-1310 1 -71 -135 -289 -257 -412 -124 -125 -307 -237 -474 -292 -40 -13 -65
-27 -63 -34 2 -7 34 -124 71 -262 36 -137 70 -260 75 -271 7 -21 9 -22 74 -8
226 47 454 170 655 353 269 244 482 611 755 1300 51 130 251 668 445 1196 194
528 355 966 357 973 4 9 -71 12 -355 12 -335 0 -361 -1 -366 -17 -142 -482
-425 -1461 -472 -1638 -78 -288 -74 -275 -82 -275 -4 0 -27 75 -52 168 -24 92
-164 525 -311 962 l-266 795 -368 3 c-347 2 -367 1 -363 -15z"/>
<path d="M15100 6245 l0 -1925 340 0 340 0 2 873 3 872 41 86 c95 198 280 319
485 319 249 0 408 -128 482 -389 21 -75 22 -90 25 -918 l3 -843 340 0 341 0
-5 868 c-4 942 -5 956 -63 1157 -122 426 -441 675 -864 675 -297 0 -578 -139
-754 -373 l-36 -49 0 786 0 786 -340 0 -340 0 0 -1925z"/>
<path d="M27080 6245 l0 -1925 340 0 340 0 0 1925 0 1925 -340 0 -340 0 0
-1925z"/>
<path d="M25235 7643 c-165 -40 -310 -75 -322 -78 l-23 -5 0 -300 0 -300 -190
0 -190 0 0 -250 0 -250 190 0 190 0 0 -697 c0 -731 3 -805 45 -969 68 -269
235 -437 500 -504 161 -41 442 -35 632 13 l85 22 -1 243 c-1 134 -5 250 -8
258 -3 8 -12 13 -20 10 -40 -16 -167 -28 -253 -24 -178 8 -260 74 -307 250
-15 55 -17 146 -20 731 l-4 667 320 0 321 0 0 250 0 250 -320 0 -320 0 -2 378
-3 378 -300 -73z"/>
<path d="M22784 7004 c-413 -69 -696 -320 -760 -674 -28 -159 -11 -291 57
-430 33 -66 60 -102 128 -171 47 -48 119 -108 159 -134 93 -59 251 -135 367
-175 50 -17 140 -55 201 -85 89 -43 121 -65 160 -108 57 -62 74 -107 74 -199
0 -204 -201 -312 -517 -279 -175 18 -406 87 -532 157 -24 13 -46 22 -48 20 -8
-7 -133 -479 -129 -484 2 -2 45 -21 96 -43 418 -180 991 -183 1345 -7 273 136
435 391 435 685 0 285 -115 495 -360 656 -95 62 -199 111 -375 177 -251 94
-367 166 -408 252 -22 46 -23 155 -1 206 32 77 117 138 222 161 160 34 430
-13 614 -105 37 -19 69 -30 71 -26 3 4 33 110 67 235 52 189 61 230 49 238
-72 46 -284 110 -444 134 -122 18 -360 18 -471 -1z"/>
<path d="M29790 7005 c-280 -48 -503 -164 -684 -355 -248 -264 -386 -640 -386
-1055 0 -712 396 -1200 1065 -1311 279 -46 664 -21 991 66 151 40 224 69 224
89 0 9 -20 111 -45 226 -25 116 -45 213 -45 216 0 4 -42 -6 -92 -22 -287 -90
-690 -114 -919 -56 -315 81 -497 284 -533 595 l-7 52 884 0 885 0 7 23 c13 45
18 371 6 462 -26 199 -72 357 -143 500 -59 117 -103 180 -193 273 -205 215
-461 313 -805 311 -74 -1 -169 -7 -210 -14z m333 -460 c165 -43 282 -155 347
-334 27 -72 50 -195 50 -262 l0 -29 -580 0 -579 0 5 33 c18 102 41 173 85 265
82 170 211 283 372 327 70 18 229 19 300 0z"/>
<path d="M18602 6063 c3 -817 5 -907 22 -993 78 -408 269 -660 581 -765 205
-69 501 -59 705 22 181 73 347 208 439 357 13 20 25 35 27 34 3 -4 34 -351 34
-384 0 -12 45 -14 296 -14 l296 0 -6 83 c-3 45 -8 639 -12 1320 l-6 1237 -334
0 -333 0 -3 -852 -3 -853 -23 -63 c-94 -262 -343 -421 -598 -383 -234 35 -364
204 -404 531 -6 52 -10 382 -10 852 l0 768 -335 0 -336 0 3 -897z"/>
</g>
</svg>
